<svg width="31" height="31" viewBox="0 0 31 31" fill="none" xmlns="http://www.w3.org/2000/svg">
<rect width="31" height="31" rx="8" fill="#29DC0C" fill-opacity="0.3"/>
<path d="M10.7485 4.97852C9.64566 4.97852 8.58751 5.41827 7.80815 6.19674C7.02818 6.9761 6.58993 8.03394 6.58993 9.1356V20.1691C6.58993 21.7078 7.44395 23.1256 8.80368 23.845C10.2171 24.592 12.2377 25.661 13.7005 26.4337C15.1559 27.2035 16.9011 27.2035 18.3561 26.4337C19.8181 25.661 21.8372 24.5917 23.2506 23.845L23.2503 23.8453H23.2518C24.6123 23.1259 25.4643 21.7078 25.4643 20.1694V9.1359C25.4643 8.03401 25.0273 6.9764 24.2473 6.19704C23.4683 5.41738 22.4106 4.97882 21.3084 4.97882L10.7485 4.97852ZM10.7485 6.99022H21.3085C21.8771 6.99022 22.4227 7.21624 22.8244 7.61852H22.8256C23.2281 8.02079 23.4539 8.56662 23.4539 9.13587V20.1693C23.4539 20.9667 23.0162 21.6945 22.3115 22.0671C20.8975 22.8144 18.8771 23.8833 17.4158 24.6558H17.4146C16.5459 25.1153 15.5096 25.1153 14.6408 24.6558C13.1789 23.8836 11.1579 22.8144 9.744 22.0671C9.04016 21.6945 8.60159 20.9664 8.60159 20.1693V9.13587C8.60159 8.56662 8.82731 8.02078 9.22989 7.61852C9.63307 7.21564 10.1786 6.99022 10.7485 6.99022ZM19.3851 12.1509C19.1234 12.1521 18.8722 12.2552 18.6849 12.4381L15.1675 15.7783L13.4981 14.4171C13.2919 14.2399 13.023 14.1536 12.752 14.1776C12.4813 14.2015 12.2316 14.334 12.0598 14.5448C11.8881 14.7555 11.8087 15.0265 11.8398 15.2966C11.8707 15.5667 12.0095 15.8128 12.2247 15.9791L14.5814 17.9018C14.9744 18.2226 15.5446 18.201 15.9124 17.8518L20.0737 13.8991C20.3792 13.617 20.4799 13.1764 20.3273 12.7897C20.175 12.4027 19.8008 12.1491 19.3851 12.1509Z" fill="#282828"/>
</svg>
