<svg width="31" height="31" viewBox="0 0 31 31" fill="none" xmlns="http://www.w3.org/2000/svg">
<rect width="31" height="31" rx="8" fill="#D43D3D" fill-opacity="0.4"/>
<path d="M25.701 21.3835L17.5026 7.14569C17.2977 6.79687 17.0052 6.50764 16.6541 6.30668C16.303 6.10572 15.9055 6 15.501 6C15.0965 6 14.699 6.10572 14.3479 6.30668C13.9968 6.50764 13.7043 6.79687 13.4994 7.14569L5.30101 21.3835C5.10388 21.7209 5 22.1046 5 22.4954C5 22.8861 5.10388 23.2699 5.30101 23.6072C5.50325 23.9582 5.79523 24.249 6.14697 24.4498C6.49871 24.6506 6.89755 24.7543 7.30257 24.7501H23.6994C24.1041 24.7539 24.5026 24.6501 24.854 24.4493C25.2054 24.2485 25.497 23.9579 25.6991 23.6072C25.8965 23.27 26.0007 22.8864 26.0011 22.4956C26.0014 22.1049 25.8978 21.7211 25.701 21.3835ZM24.4007 22.8563C24.3292 22.9782 24.2266 23.0789 24.1034 23.1481C23.9802 23.2173 23.8407 23.2525 23.6994 23.2501H7.30257C7.16127 23.2525 7.02185 23.2173 6.89863 23.1481C6.7754 23.0789 6.67279 22.9782 6.60132 22.8563C6.53658 22.7467 6.50243 22.6217 6.50243 22.4944C6.50243 22.3671 6.53658 22.2422 6.60132 22.1326L14.7998 7.89475C14.8727 7.77341 14.9757 7.67301 15.099 7.6033C15.2222 7.5336 15.3613 7.49696 15.5029 7.49696C15.6444 7.49696 15.7836 7.5336 15.9068 7.6033C16.03 7.67301 16.1331 7.77341 16.206 7.89475L24.4044 22.1326C24.4686 22.2425 24.5021 22.3676 24.5015 22.4949C24.5008 22.6222 24.466 22.747 24.4007 22.8563ZM14.751 17.2501V13.5001C14.751 13.3011 14.83 13.1104 14.9707 12.9697C15.1113 12.8291 15.3021 12.7501 15.501 12.7501C15.6999 12.7501 15.8907 12.8291 16.0313 12.9697C16.172 13.1104 16.251 13.3011 16.251 13.5001V17.2501C16.251 17.449 16.172 17.6397 16.0313 17.7804C15.8907 17.921 15.6999 18.0001 15.501 18.0001C15.3021 18.0001 15.1113 17.921 14.9707 17.7804C14.83 17.6397 14.751 17.449 14.751 17.2501ZM16.626 20.6251C16.626 20.8476 16.56 21.0651 16.4364 21.2501C16.3128 21.4351 16.1371 21.5793 15.9315 21.6644C15.726 21.7496 15.4998 21.7719 15.2815 21.7284C15.0633 21.685 14.8628 21.5779 14.7055 21.4206C14.5482 21.2632 14.441 21.0628 14.3976 20.8445C14.3542 20.6263 14.3765 20.4001 14.4616 20.1945C14.5468 19.989 14.691 19.8133 14.876 19.6897C15.061 19.566 15.2785 19.5001 15.501 19.5001C15.7994 19.5001 16.0855 19.6186 16.2965 19.8296C16.5075 20.0405 16.626 20.3267 16.626 20.6251Z" fill="#282828"/>
</svg>
