<svg width="101" height="44" viewBox="0 0 101 44" fill="none" xmlns="http://www.w3.org/2000/svg">
<path d="M12.0914 32.4714C18.3374 32.4714 22.0614 31.1043 22.0614 26.8382C22.0614 22.4778 18.3374 21.8649 12.5628 21.4171L11.5964 21.3464C7.80164 21.0871 7.16525 20.7572 7.16525 19.8851C7.16525 19.1544 7.89591 18.683 10.8893 18.683C14.0712 18.683 15.6033 19.1544 15.6033 20.4508H21.3543C21.1422 16.7031 17.5831 14.6761 10.9364 14.6761C5.11467 14.6761 1.41419 16.4203 1.41419 19.8851C1.41419 23.5148 4.26615 25.1176 10.7479 25.4947L11.5728 25.5418C15.674 25.8011 16.3104 26.0132 16.3104 27.0503C16.3104 27.946 15.6033 28.4645 11.8557 28.4645C8.17875 28.4645 6.90598 27.6396 6.90598 26.4139H1.15492C1.36705 30.8451 5.27966 32.4714 12.0914 32.4714ZM24.3851 32H41.6854V27.8281H29.924V25.424H41.214V21.6292H29.924V19.2487H41.6854V15.0768H24.3851V32ZM44.2492 32H49.7881V20.38L58.4382 32H66.6406V15.0768H61.1016V26.6732L52.4515 15.0768H44.2492V32ZM79.9469 32.4714C86.1929 32.4714 89.9169 31.1043 89.9169 26.8382C89.9169 22.4778 86.1929 21.8649 80.4183 21.4171L79.4519 21.3464C75.6571 21.0871 75.0208 20.7572 75.0208 19.8851C75.0208 19.1544 75.7514 18.683 78.7448 18.683C81.9267 18.683 83.4588 19.1544 83.4588 20.4508H89.2098C88.9977 16.7031 85.4387 14.6761 78.7919 14.6761C72.9702 14.6761 69.2697 16.4203 69.2697 19.8851C69.2697 23.5148 72.1217 25.1176 78.6034 25.4947L79.4283 25.5418C83.5295 25.8011 84.1659 26.0132 84.1659 27.0503C84.1659 27.946 83.4588 28.4645 79.7112 28.4645C76.0343 28.4645 74.7615 27.6396 74.7615 26.4139H69.0104C69.2226 30.8451 73.1352 32.4714 79.9469 32.4714Z" fill="#345DC7"/>
<path d="M26.9109 2.09079C26.7968 2.07812 26.7143 2.06545 26.6319 2.06545C24.7357 2.03377 22.3892 2.05278 22.1419 2.10347C22.1292 2.14782 22.1102 2.1985 22.1102 2.24919C22.1102 2.35056 22.1102 2.45193 22.1102 2.5533C22.1102 4.92287 22.1102 7.29244 22.1102 9.662C22.1102 10.0485 22.1165 10.0358 21.7297 10.0358C21.2223 10.0358 20.715 10.0358 20.2076 10.0358C20.1442 10.0358 20.0808 10.0358 20.011 10.0358C19.8779 10.0295 19.8462 9.9978 19.8335 9.87108C19.8335 9.80772 19.8335 9.74437 19.8335 9.67468C19.8335 6.57016 19.8335 3.45931 19.8335 0.354802C19.8335 0.118268 19.9497 0 20.1823 0C20.2393 0 20.2901 0 20.3472 0C24.5391 0 28.7374 0 32.9293 0C33.1703 0 33.4113 2.89641e-07 33.646 0.0126718C34.1406 0.0443505 34.6099 0.158393 35.0412 0.418159C35.4344 0.652581 35.7197 0.98204 35.9163 1.38753C36.0876 1.74866 36.1764 2.12881 36.2271 2.52796C36.2778 2.91444 36.2715 3.30092 36.2715 3.6874C36.2715 5.67682 36.2715 7.66625 36.2715 9.662C36.2715 10.0548 36.2842 10.0358 35.891 10.0358C35.3646 10.0358 34.8382 10.0358 34.3119 10.0358C34.0455 10.0358 34.0265 10.0168 34.0201 9.75704C34.0201 9.68101 34.0201 9.61132 34.0201 9.53529C34.0201 7.62823 34.0201 5.72117 34.0201 3.81412C34.0201 3.58603 34.0138 3.35161 33.9821 3.12352C33.9123 2.52162 33.5318 2.07812 32.8406 2.07179C31.699 2.05912 30.5512 2.07179 29.4096 2.07179C29.3462 2.07179 29.2828 2.08446 29.2067 2.09079C29.1877 2.16682 29.1623 2.23652 29.156 2.30621C29.1496 2.41392 29.156 2.52796 29.156 2.63567C29.156 4.96088 29.156 7.27977 29.156 9.60498C29.156 9.70635 29.156 9.80773 29.1433 9.9091C29.1433 9.97879 29.0925 10.0231 29.0164 10.0358C28.972 10.0358 28.9277 10.0358 28.8769 10.0358C28.3062 10.0358 27.7354 10.0358 27.1646 10.0358C26.9363 10.0358 26.9173 10.0168 26.9109 9.78238C26.9109 9.71902 26.9109 9.65567 26.9109 9.58597C26.9109 7.21641 26.9109 4.84684 26.9109 2.47727C26.9109 2.35689 26.9109 2.23652 26.9046 2.08446L26.9109 2.09079Z" fill="#345DC7"/>
<path d="M17.9246 8.00865C17.9373 8.07834 17.95 8.1417 17.95 8.20505C17.95 8.73092 17.95 9.25679 17.95 9.78265C17.95 10.0107 17.9246 10.0297 17.6963 10.0361C17.6583 10.0361 17.6202 10.0361 17.5885 10.0361C14.424 10.0361 11.2657 10.0361 8.10115 10.0361C7.73333 10.0361 7.3655 10.0044 7.00402 9.92204C6.243 9.74464 5.65955 9.33282 5.32977 8.61054C5.1966 8.31276 5.11415 8.00231 5.05708 7.68552C5.00634 7.37507 5 7.06462 5 6.74783C5 5.22726 5 3.70668 5 2.1861C5 1.88832 5.03171 1.59688 5.10781 1.31177C5.26636 0.747889 5.61516 0.361408 6.17324 0.165C6.44594 0.0699636 6.72498 0.0129419 7.01036 0.00660616C7.19427 0.00660616 7.37818 0.00660616 7.5621 0.00660616C10.2637 0.00660616 12.9653 0.00660616 15.667 0.00660616C15.8255 0.00660616 15.9777 0.00660616 16.1362 0.00660616C16.3899 0.00660616 16.6309 0.0509564 16.8719 0.114314C17.5822 0.29805 17.9817 0.766896 18.1276 1.47016C18.172 1.67924 18.191 1.88832 18.191 2.10374C18.191 2.7183 18.191 3.3392 18.191 3.95377C18.191 4.24522 18.1276 4.51765 18.0261 4.79009C17.8549 5.23993 17.5441 5.55038 17.1002 5.71511C16.8212 5.81648 16.5358 5.88617 16.2377 5.88617C16.0601 5.88617 15.8889 5.88617 15.7113 5.88617C13.0731 5.88617 10.4413 5.88617 7.80309 5.88617C7.70162 5.88617 7.60015 5.88617 7.49868 5.88617C7.43526 5.88617 7.37818 5.91785 7.30842 5.93052C7.30208 6.00655 7.2894 6.06991 7.28306 6.13327C7.28306 6.34235 7.28306 6.55776 7.28306 6.76684C7.28306 6.92523 7.32111 7.07729 7.37184 7.22301C7.49868 7.58415 7.75869 7.79957 8.12018 7.8946C8.27238 7.93262 8.43093 7.93895 8.58313 7.95162C8.69094 7.95796 8.8051 7.95162 8.91291 7.95162C11.7921 7.95162 14.6649 7.95162 17.5441 7.95162C17.6646 7.95162 17.7851 7.93262 17.9246 7.98964V8.00865ZM7.2894 4.23254C7.4416 4.32758 7.58112 4.30224 7.72064 4.30224C10.0671 4.30224 12.4199 4.30224 14.7664 4.30224C14.925 4.30224 15.0772 4.28957 15.2357 4.27056C15.6606 4.21987 15.9079 3.98545 15.946 3.55462C15.9714 3.22516 15.9714 2.88937 15.946 2.55991C15.9143 2.17977 15.705 1.97069 15.3245 1.88832C15.2103 1.86298 15.0898 1.85664 14.9693 1.85031C14.3542 1.85031 13.7327 1.85031 13.1175 1.85031C11.5257 1.85031 9.9276 1.85031 8.3358 1.85031C8.15823 1.85031 7.987 1.85664 7.81577 1.90733C7.59381 1.96435 7.4416 2.10374 7.35282 2.30648C7.30208 2.42686 7.28306 2.55357 7.28306 2.68662C7.28306 3.14913 7.28306 3.60531 7.28306 4.06782C7.28306 4.12484 7.2894 4.17552 7.29574 4.23888L7.2894 4.23254Z" fill="#345DC7"/>
<path d="M44.4276 0C45.6008 0 46.7677 0 47.941 0C48.3215 0 48.6956 0.0190076 49.0635 0.120379C49.203 0.158394 49.3488 0.202744 49.482 0.259765C50.1733 0.538538 50.5855 1.07074 50.8075 1.76134C50.928 2.14148 50.9977 2.52796 50.9977 2.92711C50.9977 4.33998 51.0041 5.74652 50.9977 7.15939C50.9977 7.65991 50.8899 8.14776 50.6806 8.60394C50.3889 9.23751 49.9069 9.64933 49.2474 9.85208C48.8922 9.95978 48.5307 10.0231 48.1566 10.0231C45.6579 10.0231 43.1592 10.0231 40.6605 10.0231C40.2039 10.0231 39.76 9.93444 39.3414 9.75704C38.758 9.50994 38.3521 9.09812 38.1111 8.51523C37.9906 8.22379 37.9209 7.91967 37.8701 7.60922C37.8257 7.33679 37.8194 7.05801 37.8194 6.78558C37.8194 5.55644 37.8194 4.33365 37.8194 3.10451C37.8194 2.68002 37.8701 2.26186 37.9843 1.85004C38.238 0.950361 38.8151 0.367473 39.7219 0.126715C40.0073 0.0506864 40.2991 0 40.5971 0C41.8782 0 43.1592 0 44.4403 0H44.4276ZM44.4149 2.05912C43.4446 2.05912 42.4806 2.05912 41.5103 2.05912C41.3898 2.05912 41.2694 2.05912 41.1489 2.05912C40.5971 2.1098 40.2737 2.39491 40.1405 2.85742C40.1151 2.95246 40.0898 3.05383 40.0834 3.1552C40.0644 3.40229 40.0517 3.64939 40.0517 3.89648C40.0517 4.66311 40.0517 5.42339 40.0517 6.19002C40.0517 6.4181 40.0581 6.65253 40.0898 6.88061C40.1468 7.31778 40.3308 7.7993 41.0347 7.91334C41.1679 7.93868 41.3074 7.95135 41.4469 7.95135C43.4192 7.95135 45.3915 7.95135 47.3638 7.95135C47.5287 7.95135 47.6936 7.93235 47.8585 7.90067C48.2644 7.8183 48.5307 7.57755 48.6576 7.18473C48.7337 6.94397 48.7654 6.70321 48.7591 6.44978C48.7591 5.48042 48.7591 4.51738 48.7591 3.54801C48.7591 3.35794 48.74 3.16153 48.702 2.97146C48.6132 2.48361 48.2961 2.16049 47.8141 2.07179C47.6873 2.04644 47.5604 2.05278 47.4273 2.05278C46.4253 2.05278 45.4169 2.05278 44.4149 2.05278V2.05912Z" fill="#345DC7"/>
<path d="M0 22C0 17.0294 4.02944 13 9 13H92C96.9706 13 101 17.0294 101 22V35C101 39.9706 96.9706 44 92 44H9C4.02943 44 0 39.9706 0 35V22Z" fill="#345DC7"/>
<path d="M16.9738 37.4715C22.8899 37.4715 26.4725 36.2458 26.4725 32.2861C26.4725 28.2792 23.1963 27.8078 17.2802 27.3835L16.2903 27.3128C11.6706 26.9829 10.2564 26.5586 10.2564 24.6023C10.2564 22.8817 11.7884 22.2217 15.8425 22.2217C20.1793 22.2217 22.5127 23.0231 22.5127 25.6394H25.7654C25.6711 21.7503 22.4656 19.8647 16.1017 19.8647C10.2328 19.8647 7.00376 21.2789 7.00376 24.6023C7.00376 27.9964 9.31361 29.3163 15.866 29.717L16.8088 29.7877C21.8528 30.1177 23.2198 30.4005 23.2198 32.3804C23.2198 34.3838 21.3814 35.1145 16.9738 35.1145C11.9063 35.1145 9.785 34.0774 9.785 31.414H6.50879C6.62664 35.963 10.1857 37.4715 16.9738 37.4715Z" fill="white"/>
<path d="M29.5115 37.0001H45.9633V34.5488H32.6699V29.7641H45.4919V27.5014H32.6699V22.7167H45.9633V20.289H29.5115V37.0001Z" fill="white"/>
<path d="M49.2145 37.0001H52.3729V23.141L65.0063 37.0001H69.626V20.289H66.4912V34.1481L53.8578 20.289H49.2145V37.0001Z" fill="white"/>
<path d="M83.057 37.4715C88.973 37.4715 92.5557 36.2458 92.5557 32.2861C92.5557 28.2792 89.2794 27.8078 83.3634 27.3835L82.3735 27.3128C77.7538 26.9829 76.3396 26.5586 76.3396 24.6023C76.3396 22.8817 77.8716 22.2217 81.9256 22.2217C86.2625 22.2217 88.5959 23.0231 88.5959 25.6394H91.8486C91.7543 21.7503 88.5488 19.8647 82.1849 19.8647C76.316 19.8647 73.0869 21.2789 73.0869 24.6023C73.0869 27.9964 75.3968 29.3163 81.9492 29.717L82.892 29.7877C87.936 30.1177 89.303 30.4005 89.303 32.3804C89.303 34.3838 87.4646 35.1145 83.057 35.1145C77.9895 35.1145 75.8682 34.0774 75.8682 31.414H72.592C72.7098 35.963 76.2689 37.4715 83.057 37.4715Z" fill="white"/>
</svg>
