<svg width="20" height="24" viewBox="0 0 20 24" fill="none" xmlns="http://www.w3.org/2000/svg">
<path d="M4.74847 0.978516C3.64566 0.978516 2.58751 1.41827 1.80815 2.19674C1.02818 2.9761 0.589928 4.03394 0.589928 5.1356V16.1691C0.589928 17.7078 1.44395 19.1256 2.80368 19.845C4.21706 20.592 6.23774 21.661 7.70053 22.4337C9.15588 23.2035 10.9011 23.2035 12.3561 22.4337C13.8181 21.661 15.8372 20.5917 17.2506 19.845L17.2503 19.8453H17.2518C18.6123 19.1259 19.4643 17.7078 19.4643 16.1694V5.1359C19.4643 4.03401 19.0273 2.9764 18.2473 2.19704C17.4683 1.41738 16.4106 0.978815 15.3084 0.978815L4.74847 0.978516ZM4.74847 2.99022H15.3085C15.8771 2.99022 16.4227 3.21624 16.8244 3.61852H16.8256C17.2281 4.02079 17.4539 4.56662 17.4539 5.13587V16.1693C17.4539 16.9667 17.0162 17.6945 16.3115 18.0671C14.8975 18.8144 12.8771 19.8833 11.4158 20.6558H11.4146C10.5459 21.1153 9.5096 21.1153 8.64084 20.6558C7.1789 19.8836 5.15791 18.8144 3.744 18.0671C3.04016 17.6945 2.60159 16.9664 2.60159 16.1693V5.13587C2.60159 4.56662 2.82731 4.02078 3.22989 3.61852C3.63307 3.21564 4.17861 2.99022 4.74847 2.99022ZM13.3851 8.15089C13.1234 8.15209 12.8722 8.25521 12.6849 8.43806L9.16747 11.7783L7.4981 10.4171C7.29186 10.2399 7.02298 10.1536 6.75199 10.1776C6.48131 10.2015 6.23161 10.334 6.05985 10.5448C5.88808 10.7555 5.80865 11.0265 5.83982 11.2966C5.8707 11.5667 6.00949 11.8128 6.22471 11.9791L8.58143 13.9018C8.97442 14.2226 9.54458 14.201 9.91239 13.8518L14.0737 9.8991C14.3792 9.61702 14.4799 9.17638 14.3273 8.78969C14.175 8.4027 13.8008 8.14909 13.3851 8.15089Z" fill="#282828"/>
</svg>
