<svg width="22" height="26" viewBox="0 0 22 26" fill="none" xmlns="http://www.w3.org/2000/svg">
<path d="M20 0H2C1.46957 0 0.960859 0.210714 0.585786 0.585786C0.210714 0.960859 0 1.46957 0 2V24C0 24.5304 0.210714 25.0391 0.585786 25.4142C0.960859 25.7893 1.46957 26 2 26H20C20.5304 26 21.0391 25.7893 21.4142 25.4142C21.7893 25.0391 22 24.5304 22 24V2C22 1.46957 21.7893 0.960859 21.4142 0.585786C21.0391 0.210714 20.5304 0 20 0ZM7 3H15C15.2652 3 15.5196 3.10536 15.7071 3.29289C15.8946 3.48043 16 3.73478 16 4C16 4.26522 15.8946 4.51957 15.7071 4.70711C15.5196 4.89464 15.2652 5 15 5H7C6.73478 5 6.48043 4.89464 6.29289 4.70711C6.10536 4.51957 6 4.26522 6 4C6 3.73478 6.10536 3.48043 6.29289 3.29289C6.48043 3.10536 6.73478 3 7 3ZM17.6012 21.8C17.4962 21.879 17.3765 21.9365 17.2492 21.9692C17.1218 22.0019 16.9893 22.0091 16.8592 21.9906C16.729 21.972 16.6038 21.9279 16.4907 21.8609C16.3776 21.7939 16.2788 21.7052 16.2 21.6C15.5945 20.7927 14.8094 20.1375 13.9069 19.6862C13.0043 19.2349 12.0091 19 11 19C9.99091 19 8.99567 19.2349 8.09311 19.6862C7.19055 20.1375 6.40546 20.7927 5.8 21.6C5.72121 21.7051 5.62249 21.7936 5.50949 21.8605C5.39649 21.9274 5.27142 21.9714 5.14142 21.99C5.01142 22.0085 4.87903 22.0013 4.75182 21.9687C4.62461 21.9361 4.50506 21.8788 4.4 21.8C4.29494 21.7212 4.20643 21.6225 4.13953 21.5095C4.07262 21.3965 4.02862 21.2714 4.01005 21.1414C3.99148 21.0114 3.99869 20.879 4.03129 20.7518C4.06388 20.6246 4.12121 20.5051 4.2 20.4C5.08548 19.2128 6.26628 18.2781 7.625 17.6887C6.88039 17.0089 6.35871 16.1199 6.12842 15.1382C5.89812 14.1566 5.96999 13.1283 6.33457 12.1883C6.69915 11.2482 7.33942 10.4404 8.17134 9.87072C9.00327 9.30106 9.98798 8.99623 10.9963 8.99623C12.0045 8.99623 12.9892 9.30106 13.8212 9.87072C14.6531 10.4404 15.2934 11.2482 15.6579 12.1883C16.0225 13.1283 16.0944 14.1566 15.8641 15.1382C15.6338 16.1199 15.1121 17.0089 14.3675 17.6887C15.729 18.277 16.9124 19.2118 17.8 20.4C17.9593 20.612 18.0278 20.8786 17.9905 21.1412C17.9533 21.4037 17.8132 21.6407 17.6012 21.8ZM14 14C14 14.5933 13.8241 15.1734 13.4944 15.6667C13.1648 16.1601 12.6962 16.5446 12.1481 16.7716C11.5999 16.9987 10.9967 17.0581 10.4147 16.9424C9.83279 16.8266 9.29824 16.5409 8.87868 16.1213C8.45912 15.7018 8.1734 15.1672 8.05764 14.5853C7.94189 14.0033 8.0013 13.4001 8.22836 12.8519C8.45542 12.3038 8.83994 11.8352 9.33329 11.5056C9.82664 11.1759 10.4067 11 11 11C11.7956 11 12.5587 11.3161 13.1213 11.8787C13.6839 12.4413 14 13.2044 14 14Z" fill="black"/>
</svg>
